<svg xmlns="http://www.w3.org/2000/svg" fill="none" viewBox="-0.5 -0.5 14 14" height="14" width="14">
    <g id="instagram">
        <g id="Group 4546">
            <path id="Vector" stroke="#fff" stroke-linecap="round" stroke-linejoin="round"
                d="M9.595114285714287 3.3838721428571428c-0.1282357142857143 0 -0.23214285714285715 -0.103935 -0.23214285714285715 -0.23214285714285715 0 -0.12821714285714286 0.10390714285714286 -0.23214285714285715 0.23214285714285715 -0.23214285714285715"
                stroke-width="1"></path>
            <path id="Vector_2" stroke="#fff" stroke-linecap="round" stroke-linejoin="round"
                d="M9.595114285714287 3.3838721428571428c0.1282357142857143 0 0.23214285714285715 -0.103935 0.23214285714285715 -0.23214285714285715 0 -0.12821714285714286 -0.10390714285714286 -0.23214285714285715 -0.23214285714285715 -0.23214285714285715"
                stroke-width="1"></path>
        </g>
        <path id="Rectangle 2" stroke="#fff" stroke-linecap="round" stroke-linejoin="round"
            d="M0.7969705714285715 3.186420714285714C0.7969705714285715 1.8668928571428571 1.8666607142857143 0.7971980714285715 3.1861978571428575 0.7971980714285715h6.371309285714286c1.3195000000000001 0 2.389214285714286 1.0696947857142858 2.389214285714286 2.389222642857143v6.371272142857143c0 1.3195000000000001 -1.0697142857142856 2.389214285714286 -2.389214285714286 2.389214285714286H3.1861978571428575c-1.319537142857143 0 -2.389227285714286 -1.0697142857142856 -2.389227285714286 -2.389214285714286V3.186420714285714Z"
            stroke-width="1"></path>
        <path id="Ellipse 11" stroke="#fff" stroke-linecap="round" stroke-linejoin="round"
            d="M4.0040000000000004 6.371857142857143a2.367857142857143 2.367857142857143 0 1 0 4.735714285714286 0 2.367857142857143 2.367857142857143 0 1 0 -4.735714285714286 0"
            stroke-width="1"></path>
    </g>
</svg>