<svg xmlns="http://www.w3.org/2000/svg" fill="none" viewBox="-0.5 -0.5 14 14" height="14" width="14">
    <g id="linkedin--network-linkedin-professional">
        <path id="Vector" stroke="#fff" stroke-linecap="round" stroke-linejoin="round"
            d="M3.3184078571428572 1.6407671428571429c0.0024885714285714285 0.3210814285714286 -0.12143857142857144 0.6302492857142857 -0.34502 0.8607114285714286 -0.22357214285714289 0.23045285714285715 -0.5288492857142857 0.36369357142857145 -0.8498564285714286 0.37092714285714284 -0.3203385714285715 -0.011755714285714286 -0.6239164285714286 -0.14612 -0.8480085714285716 -0.3753471428571429 -0.22408285714285717 -0.22921785714285717 -0.3515497142857143 -0.5357578571428572 -0.3560477142857143 -0.8562914285714286 0.013924857142857143 -0.3122785714285714 0.14607914285714288 -0.6075921428571428 0.36966057142857145 -0.8260543571428571 0.22358142857142857 -0.21846500000000002 0.5218757142857142 -0.34373857142857145 0.8343957142857144 -0.3504270714285715 0.3116192857142857 0.006812928571428571 0.608855 0.13239757142857142 0.8309507142857143 0.3510789285714286 0.22209571428571429 0.21868321428571427 0.3522814285714286 0.5139410714285715 0.3639257142857143 0.8254025ZM1.048152857142857 5.059934285714286c0 -0.7077292857142857 0.4503757142857143 -0.5974335714285715 1.0753785714285713 -0.5974335714285715 0.6250121428571428 0 1.066195 -0.11029571428571429 1.066195 0.5974335714285715v6.893472857142857c0 0.7169500000000001 -0.4503757142857143 0.5698642857142857 -1.066195 0.5698642857142857 -0.61581 0 -1.0753785714285713 0.1470857142857143 -1.0753785714285713 -0.5698642857142857V5.059934285714286Z"
            stroke-width="1"></path>
        <path id="Vector_2" stroke="#fff" stroke-linecap="round" stroke-linejoin="round"
            d="M5.046358571428572 5.059925000000001c0 -0.3952278571428572 0.14705785714285716 -0.5422857142857143 0.3768421428571429 -0.5882499999999999 0.22978428571428575 -0.045955 1.0202307142857143 0 1.2959699999999998 0 0.27573928571428574 0 0.386035 0.4503757142857143 0.37685142857142856 0.7904557142857144 0.2358664285714286 -0.3165592857142857 0.5490085714285714 -0.5672921428571428 0.9094892857142858 -0.7282135714285715 0.36047142857142855 -0.1609307142857143 0.75621 -0.22666428571428573 1.1493578571428573 -0.19091428571428573 0.3860164285714286 -0.023604285714285717 0.7727664285714286 0.03427357142857143 1.1350021428571428 0.16988214285714287 0.3622357142857143 0.1355992857142857 0.6918785714285715 0.34589285714285717 0.9674785714285715 0.6172121428571429 0.27569285714285713 0.2713192857142857 0.49121428571428577 0.5975914285714287 0.6325428571428572 0.9576264285714287s0.20530714285714285 0.7457728571428571 0.18785000000000002 1.1321514285714287v4.705953571428571c0 0.7169500000000001 -0.4412571428571429 0.5698642857142857 -1.0662785714285716 0.5698642857142857 -0.6249285714285715 0 -1.0661857142857145 0.1470857142857143 -1.0661857142857145 -0.5698642857142857V8.249298571428572c0.016157142857142856 -0.18921500000000002 -0.008542857142857144 -0.37969285714285717 -0.07252142857142857 -0.5584985714285714s-0.16565714285714286 -0.34175142857142854 -0.29825714285714283 -0.47776857142857143c-0.13250714285714285 -0.13601714285714286 -0.29274142857142854 -0.24192071428571427 -0.4698292857142858 -0.3105235714285714 -0.17707857142857145 -0.06860285714285715 -0.36685071428571425 -0.09828928571428572 -0.5564278571428573 -0.08704428571428573 -0.188695 -0.004800714285714286 -0.3762571428571429 0.03055 -0.5502714285714286 0.10368428571428571 -0.174005 0.07314357142857143 -0.3304971428571429 0.18241785714285716 -0.45910428571428574 0.32058 -0.12859785714285715 0.13816214285714287 -0.226395 0.30207357142857144 -0.2868914285714286 0.48087 -0.060496428571428576 0.17879642857142858 -0.08232714285714286 0.3684107142857143 -0.06404357142857144 0.5562792857142858v3.67653c0 0.7169500000000001 -0.4503757142857143 0.5698642857142857 -1.0753878571428572 0.5698642857142857 -0.6250028571428572 0 -1.0661857142857145 0.1470857142857143 -1.0661857142857145 -0.5698642857142857V5.059925000000001Z"
            stroke-width="1"></path>
    </g>
</svg>